/* XPM */
static char *_d7bcb5f6b054beed9491f6fe9a34bf5g9rHp3t17UpK2w8m[] = {
/* columns rows colors chars-per-pixel */
"32 32 23 1 ",
"  c #1B1B1B",
". c #1E1E1E",
"X c #222222",
"o c #272727",
"O c gray17",
"+ c gray18",
"@ c #323232",
"# c #353535",
"$ c gray22",
"% c #3C3C3C",
"& c #434343",
"* c gray28",
"= c #4B4B4B",
"- c #4E4E4E",
"; c #515151",
": c gray33",
"> c #5B5B5B",
", c #5D5D5D",
"< c gray38",
"1 c gray40",
"2 c gray42",
"3 c #717171",
"4 c #C0C0C0",
/* pixels */
"+OO%oo%+#%o+X+O@@+o@O+#+o@+o#Oo+",
"+@oXO+X@&O@@+#-$#%@$oOOOO+O.Xo+&",
"oo+oO.X+@O#Oo+@%*>+&Xo@#=XO=.+o.",
"@XX*.OXO+$@#oo3$+$#.+Xo&oX+%o&OO",
"+@=@+Ooo$o.%#++%+O#@#$oO@X#oX$#@",
"OO+Oo#X#Oo@+O++1&+++o@@,%#o@o@o#",
"##o+&+@$++%O%o%$=+#@oO=.Xo$+ooOO",
"#@O.oOX+Ooo%O+O$#+%$@++OXX@oo@o@",
"+@Oo.+OOo.+OOXO@1@#%$O,O#+X<OOXX",
"%oX$oXooOo#@O+O&+++&@%+OX*#X+X+%",
":@@oo$O#@OO&o#+-+o$@@#@O+X##@Xo%",
"@+###@OOO@Oo#oO+&=#%XoOOo@OOX%XO",
"O#O@o+++*o@%$@+=+=##+@O@+#+O+ooO",
"o@:.X&@#@o+#$o&@#%*%#&++%OO+OOOo",
"o%XOO+O&O&@@&+$%@@#&*+%+oO&X+OOO",
"o+o%O@+OOO%@@@&+$%%:%=@@$=#X$++X",
"4+O&+#%+@@+@@++O&-$$O+@1#o#o+o@O",
"o#*%XO+@$%X#@+1&@%@#%-OO+$#o*+$X",
"@#o%%++O++@#$$#$@#=*$#+@@+#$$+%$",
"#OO%+O@>o$##%#&%#&%$$$##O;+@O=O@",
"+#$++#$o#@*$#@%####@$%$*=+@+O@+.",
"<=oO#+@@o@%@O$+&#*:+$&o#+OO+++O+",
"o+@#+O+OoO&%#@$#%O$##=@+O&&+@O$$",
"o@X$++&oO$+$#%*@@@%*++%@+#%@+$O2",
"O+@++@ooO#@O$@%@O*%@#+#%++O%+X$O",
"o@@o@.@@$+O&@++#+$#$%X#@o+:+#X$%",
"OO+#O+O$OO-oX+++$@@$o@.oXO+#o@#2",
"+#&Oo+%+oO++#@&$$+#@+O&+.#O.-@o@",
"O#X -oX@oXX++++++O+++$+O+Xo+ooO@",
"%+oo+O@+OOo.%O@#Oo*$@+XXOo@+@+@O",
"oo.o$o%+@@+oOO@#&##+#%+X@XOXo++-",
"oX+o@Oo-oX+#@+O-@O++@++++O+ oXOX"
};
