/* XPM */
static char *_96f870902034407942302b8922e1e2e8bFZOr6GyH9mMZzs[] = {
/* columns rows colors chars-per-pixel */
"31 32 6 1 ",
"  c None",
". c black",
"X c #3A0911",
"o c #811426",
"O c #A11B31",
"+ c white",
/* pixels */
"                               ",
"                               ",
"                               ",
"           XXXXXXX             ",
"          XoOOOOOOX            ",
"         XoOOOXXXXOX           ",
"        XoOOOX....XOX          ",
"        XoOOX......XOX         ",
"       XooOOX......XOX         ",
"       XoooOX.+...+XOX         ",
"       XoXoOX.+...+XOX         ",
"       XoXoOX......XoX         ",
"        XXooOX.....XoX         ",
"          XoooX...XoX          ",
"           XXooXXXoX           ",
"          XoooOOOOOoX          ",
"         XoOOOOOOOOOoX         ",
"         XoOOOOOOOOOoX         ",
"         XOOOOOOOOOOOX         ",
"        XoOOOOOOOOOOOX         ",
"        XoOOOOOOoOOOOoX        ",
"        XoOOOOOOoOOOOoX        ",
"        XoOOOOOoXoOOooX        ",
"       XoooOoOooXooOooX        ",
"       XooooOooX.XooooX        ",
"       XoXooooX..XooXoX        ",
"        XXoXooX...XooX         ",
"         XX XXX  .XXX          ",
"            ..    .            ",
"             .    .            ",
"             .    .            ",
"                               "
};
