/* XPM */
static char *result[] = {
/* columns rows colors chars-per-pixel */
"32 32 145 2 ",
"   c #1B1B1B",
".  c #1D1D1D",
"X  c gray18",
"o  c #3A3A3A",
"O  c gray23",
"+  c gray24",
"@  c #3F3F3F",
"#  c #444444",
"$  c gray27",
"%  c #484848",
"&  c #494949",
"*  c #4C4C4C",
"=  c gray30",
"-  c gray31",
";  c #505050",
":  c #515151",
">  c gray32",
",  c #535353",
"<  c gray33",
"1  c gray34",
"2  c #585858",
"3  c gray35",
"4  c #5A5A5A",
"5  c #626262",
"6  c #656565",
"7  c #717171",
"8  c gray45",
"9  c #747474",
"0  c gray46",
"q  c #767676",
"w  c #777777",
"e  c #797979",
"r  c gray48",
"t  c #7C7C7C",
"y  c gray49",
"u  c #7E7E7E",
"i  c #868686",
"p  c #8B8B8B",
"a  c #8D8D8D",
"s  c #8E8E8E",
"d  c gray56",
"f  c #909090",
"g  c gray57",
"h  c #929292",
"j  c gray58",
"k  c #959595",
"l  c gray59",
"z  c #989898",
"x  c gray60",
"c  c #9A9A9A",
"v  c #9B9B9B",
"b  c gray61",
"n  c #9D9D9D",
"m  c #A0A0A0",
"M  c gray64",
"N  c #A4A4A4",
"B  c gray65",
"V  c #A7A7A7",
"C  c gray66",
"Z  c #A9A9A9",
"A  c #AAAAAA",
"S  c gray67",
"D  c #ACACAC",
"F  c gray68",
"G  c #AEAEAE",
"H  c #AFAFAF",
"J  c gray69",
"K  c #B1B1B1",
"L  c #B2B2B2",
"P  c gray70",
"I  c #B4B4B4",
"U  c gray71",
"Y  c #B6B6B6",
"T  c #B7B7B7",
"R  c gray72",
"E  c #B9B9B9",
"W  c gray73",
"Q  c #BBBBBB",
"!  c #BCBCBC",
"~  c gray74",
"^  c gray",
"/  c gray75",
"(  c #C0C0C0",
")  c #C1C1C1",
"_  c gray76",
"`  c #C3C3C3",
"'  c gray77",
"]  c #C5C5C5",
"[  c #C6C6C6",
"{  c gray78",
"}  c #C8C8C8",
"|  c gray79",
" . c #CACACA",
".. c #CBCBCB",
"X. c gray80",
"o. c #CDCDCD",
"O. c #CECECE",
"+. c gray81",
"@. c #D0D0D0",
"#. c gray82",
"$. c #D2D2D2",
"%. c LightGray",
"&. c gray83",
"*. c #D5D5D5",
"=. c gray84",
"-. c #D7D7D7",
";. c #D8D8D8",
":. c gray85",
">. c #DADADA",
",. c gray86",
"<. c gainsboro",
"1. c #DDDDDD",
"2. c gray87",
"3. c #DFDFDF",
"4. c gray88",
"5. c #E1E1E1",
"6. c #E2E2E2",
"7. c gray89",
"8. c #E4E4E4",
"9. c gray90",
"0. c #E6E6E6",
"q. c #E7E7E7",
"w. c gray91",
"e. c #E9E9E9",
"r. c #EAEAEA",
"t. c gray92",
"y. c #ECECEC",
"u. c gray93",
"i. c #EEEEEE",
"p. c #EFEFEF",
"a. c gray94",
"s. c #F1F1F1",
"d. c gray95",
"f. c #F3F3F3",
"g. c #F4F4F4",
"h. c gray96",
"j. c #F6F6F6",
"k. c gray97",
"l. c #F8F8F8",
"z. c #F9F9F9",
"x. c gray98",
"c. c #FBFBFB",
"v. c gray99",
"b. c #FEFEFE",
"n. c white",
/* pixels */
":.k.9.W } e.p.s.p.a.p.f.f.f.h.e.=.5.0.<.t.k.3.6.:.w.s.9.=.1.f.6.",
"n.n.t.o.4.n.n.n.n.n.n.n.j.q.t.a.$.*.2.s.p.p.9.' ! @.l.6.7.5.u.7.",
"n.f.$.z.;.n.s.4.n.q.n.j.0.q.u.s.&.;.#.s.u.8. .~ m ( r.r.>.i.w.,.",
"p.7.Z @.<.w.' 9.r.n.n.5.>.s.n.e.,.X.2.&.2.6.~ a z l ..1.,.<.2.` ",
"s.O.p Z ..e.>.r.n.n.n.z.q.n.n.e.O.*.+.P U J J j x a S ! @.;.q.#.",
"u.X.c G / e.9.n.n.n.n.7.8.n.n.t. .@.%.I T a T ' v a _ ) ` >.-.<.",
"f.p.P %...n.8.0.e.3.k.9.4.n.k.t.s.t.#.-.W Y ~ ,.! n .. .| 3.4.<.",
"e.r.! X.2.n.c.e.9.q.w.7.k.n.e.-.1.w.X.} ! f v I ^ J O.1.#.#.E Z ",
"t.y.s.u.n.e.] ,.1... .[ t.c.n.n.u.9.p.s.n.a.2.6.9.-.=.*.u.c.n.n.",
";.e.u.p.5.7.#.s.f. .t.q.e.b.n.p.#.s.t.p.,.r.-.u.k.@.s.e.p.n.n.d.",
"f.=.p.*.B o.#.>.e.` e.5.f.n.e.u.a.;.p.$.H <.5.3.p.+.u.t.h.n.7.0.",
"8.9.*._ -.| +.%.+.| p.n.n.n.9.i.>.9.O._ ,.| ;.;.$.#.u.n.n.n.8.p.",
"w.=.O./ X.X.+.p.@.` r.n.c.6.c.p.e.#.O.{ ,.>.=.f.O...g.n.c.6.k.u.",
"<.K H ) H [ @.>.a.O.n.n.n.5.w.d.%.L P I Q @.<.1.p.<.n.n.n.u.f.e.",
";.J M H K ` T b n.e.q.n.k.e.:.8.%.H M P Y ' Q A n.p.r.n.x.p.3.7.",
"      @ + o $ = * & * O O # = ; : 5 w t y w u e e 8 8 7 6 : - , ",
"h.s.t.=.3.h.f.n.n.n.b.s.k.p.s.u.5.2.p.k.l.n.s.-.,.r.f.%.%.1.g.k.",
"n.n.t.-.:.n.n.n.b.n.n.n.r.q.q.u.+.=.#.p.s.p.:.R H { c.,.;.&.a.4.",
"s.s.X.-.>.n.1.q.a.z.n.8.q.e.p.u.%.#.,.r.;.=.' M f C ;.>.:.y.w.,.",
"s.1.D ( 1.9.[ 8.j.n.n.t.t.z.n.r.@.#.@.` / +.Y s f h K [ 1.-.=.%.",
"k.$.a F [ e.q.g.n.n.n.u.7.n.n.q.%.>.@.U T A J d j s M T  .1.,.,.",
"k.3.H L W u.u.u.f.n.n.e.9.n.n.q.4.>.%.) K V R _ A z R T X.,.>.3.",
"u.f.J @.=.n.y.q.9.u.r.q.q.n.q.u.i.f.*.&.E N ) -.W V  .` { #.-.~ ",
"6 e 9 q t p b g v x n n N N x m N A S b g i p k v c H b d f u q ",
"q.f.h.c.s.7.| h.d.O.>.-.q.n.n.n.r.t.t.k.g.e.=.p.f.,.1.w.s.v.n.n.",
"r.y.e.e.o.@.o.u.i.X.0.p.q.n.a.9.6.0.u.r.#.;.>.k.f.$.f.e.e.n.p.t.",
"5.w.5...' [ *.o.@.X.9.f.n.n.e.t.,.a.7.#./ @.&.*.;.@.e.f.n.n.t.e.",
"f.%.+.{ 0.=.%.-...@.e.n.n.j.z.e.h.>.&.} -.4.*.>.O.#.t.n.n.k.f.s.",
">.{ T ) -.| &.c.6.>.k.n.n.6.t.p.=.( E W =.| *.g.0.,.z.b.k.8.w.u.",
">.R J P I 3.*.&.k.' c.n.n.q.5.u.-.P A K R ;.;.>.h.X.k.n.n.9.5.t.",
"=._ | / P E I l n.t.s.f.q.-.t.$.O.I W Q T Q H x n.p.p.i.y.:.t.$.",
"    % # .   X 4 < 8 e - * ; > : , 1 , 2 < 3 1 0 r q ; : : ; , : "
};
