/* XPM */
static char *result[] = {
/* columns rows colors chars-per-pixel */
"32 32 126 2 ",
"   c #1E1409",
".  c #321F0E",
"X  c #2E1E11",
"o  c #311F11",
"O  c #33200F",
"+  c #39280A",
"@  c #352213",
"#  c #392514",
"$  c #3E2919",
"%  c #462D0F",
"&  c #593A0C",
"*  c #422C17",
"=  c #492E11",
"-  c #432E19",
";  c #492F1C",
":  c #4E3016",
">  c #4C311C",
",  c #543416",
"<  c #563814",
"1  c #5B3C15",
"2  c #53351E",
"3  c #59371B",
"4  c #573C1F",
"5  c #593B1B",
"6  c #553621",
"7  c #5A3A22",
"8  c #5E401A",
"9  c #7E4E1E",
"0  c #664325",
"q  c #6A4727",
"w  c #6E4827",
"e  c #6D4929",
"r  c #7B4E25",
"t  c #704729",
"y  c #744C2B",
"u  c #7A4F2D",
"i  c #7D522E",
"p  c #7F5230",
"a  c #87501A",
"s  c #885119",
"d  c #9B5B13",
"f  c #975B1C",
"g  c #9B5D1D",
"h  c #9B6C1C",
"j  c #A46015",
"k  c #A2631E",
"l  c #A66B19",
"z  c #AE7B1F",
"x  c #845424",
"c  c #8B5522",
"v  c #875822",
"b  c #8F5A26",
"n  c #84542B",
"m  c #8A562A",
"M  c #8D5B2C",
"N  c #935B24",
"B  c #9B5F25",
"V  c #935D2E",
"C  c #9C5F28",
"Z  c #845632",
"A  c #8C5735",
"S  c #865933",
"D  c #8B5A34",
"F  c #8F5D38",
"G  c #915D35",
"H  c #995F31",
"J  c #935F38",
"K  c #8F6028",
"L  c #926126",
"P  c #91632B",
"I  c #9A642E",
"U  c #9B692A",
"Y  c #926232",
"T  c #9C6332",
"R  c #9C6932",
"E  c #956139",
"W  c #9C653C",
"Q  c #9E683D",
"!  c #A66022",
"~  c #A2642A",
"^  c #A46A2B",
"/  c #A86E2E",
"(  c #AD7727",
")  c #A5702E",
"_  c #A9722E",
"`  c #AF7828",
"'  c #BB7A28",
"]  c #A26633",
"[  c #A46D36",
"{  c #AB6A37",
"}  c #A0673C",
"|  c #A36A3E",
" . c #A96F38",
".. c #A77136",
"X. c #AD7531",
"o. c #AB723A",
"O. c #B37631",
"+. c #B57A31",
"@. c #B97D35",
"#. c #B3743E",
"$. c #B4783C",
"%. c #B87A3D",
"&. c #9E6740",
"*. c #A56B40",
"=. c #AA6E42",
"-. c #AD7044",
";. c #B17246",
":. c #B67648",
">. c #B97649",
",. c #BD794A",
"<. c #B68020",
"1. c #C18137",
"2. c #F49B23",
"3. c #F49F4F",
"4. c #F49C5D",
"5. c #FCA443",
"6. c #FEB147",
"7. c #FDB34A",
"8. c #EBA857",
"9. c #FBA653",
"0. c #FCAE56",
"q. c #F3A15F",
"w. c #F5A462",
"e. c #FCA463",
"r. c #FDA965",
"t. c #FEAE6A",
/* pixels */
"8.w.7.t.r.4.5.4.;.6.4.4.q.9.0.8.} 4.4.q.3.0.t.r.:.4.r.9.e.q.e.4.",
"3 @ . . @ + # @   # @ # O X O X   @ # o @ X . X   # * # # $ @ X ",
"T g g d S i i w ; D D G b d Q I 3 J *.W N b J y - u Z u E D M p ",
"W E T V W I ` Y 7 ..R F D Z W Y 8 *.&.J H J D m , Q ( #.-...E S ",
"o.~ Q E W T H S 2 -.;.-.*.} Q c 2  .| W W J Q F 7 | | W -.#.;.S ",
"=.W  ...o.| ] n > D E |  .o.o.P 2 V G C E J ^ G 1 | Q G D S I L ",
"N | | W G ( [ S > Z D Z Z Z m 0 - S V A V Q Q Z 6  .W f i y M t ",
"$.Q _ -.| T W A 2 *.*.*.X.-.=.Y 5 W ~ B C H X.D 1 E o.[ *.T Q n ",
"I S Z S A S J n 2 V V [ Q E | S 4 *.-.| H W P i 6 D A D D D M y ",
"A y i Z i A Q i 2 Q Q N D y e s = i *.| H *.W 9 > S y i S S A w ",
";.[  .W Q Q Q F 5 { W H E C V Z 6 E R E X.*.Q m 6 W W H Q R _ n ",
"' I | T V i c r > J G G E S F u : M D E C E E Z ; Z N Z Z f W I ",
"1.=.| J D D A y > E E Q R ..[ v ; n Z Z S U R D 2 *.[ H D Z W M ",
"=.Q W J W H J p > D m D F J H p 2 D S M Z A m i > J W Q W Q T n ",
"{ C J W } [ Q Z 6 W J C T E T F 1 X.| ~ E l T n , J Q Q | ` X.D ",
"G ! _ X.Q X.=.t = g w u f g _ h & { ;.G p T x 7 ; d C _ O.T | u ",
"| W W *.R  .=.J 7 Q *.[ *.&.&.A 3 *._ =.*.Q ^ A 6 _ W Q } ]  .A ",
"#.|  .T C V E D 2 o.:.>.o.=.X.D , J T H Q ( =.*.7 | [ | T T H n ",
"O.W *.J N N F y - r i u E F K p = g g d Z p i q ; J S J N d W I ",
"1.*.Q J H G F m , Q ( #.-.) E S > W V G W T z Y 5 ..R D D S W M ",
"-. .| W W W *.F 7 } | Q =.#.;.A 2 ~ *.E W T H Z 4 -.;.-.*.Q Q x ",
"{ H G C J J ~ E 1 *.Q J A S T L 6 Q  . . .*.T m - D E | [ ;.o.L ",
"D m V S M W Q Z 6 [ W f n u M t % | | W J (  .D , Z F S Z S m 0 ",
"%.W ~ N C H X.A 1 Q  .[ | T W m 3 W _ -.&.T E D 2 *.*.| ..;.=.K ",
"=.*.=.| V W V u 6 A D F D D M y = Z Z S A Z G n > Y M | Q W [ Z ",
"C n =.| T *.W 9 > Z y i S Z D t * u u n p F &.p 2 } W N D y t a ",
"-.E R E X.*.W m 2 W W H Q R [ M 6  . .W &.Q &.G 5 / W H J C V Z ",
"I M D W C J W Z ; Z N p n f W U < T | R V r c r ; W J J E D J u ",
"E n Z n D U R D 6 =.[ H A Z W M 1 =.*.J G F Z t ; E W } R [ [ s ",
"| A D M Z D m u > J W Q W Q T n 6 Q W E E T J Z > A m D F D T Z ",
"1.` | ~ E l T r , J Q &.*.( X.Y 2 C J W } [ Q Z 6 W G C W F R A ",
"2.#.,.E D ] m q 7 j ~ O.@.] =.W 6 ~ O.+.*.@.;.n 1 k y u h ! +.<."
};
